<svg width="550" height="450" viewBox="0 0 620 449" fill="none" xmlns="http://www.w3.org/2000/svg">
<path d="M228.87 444.519C225.199 443.268 221.639 441.708 218.228 439.854C186.918 422.839 176.801 388.235 166.085 351.601C158.552 325.858 150.766 299.233 134.951 279.16C119.766 259.887 97.8477 247.655 76.6555 235.799C65.1078 229.357 53.1693 222.693 42.3305 214.933C9.60492 191.5 -12.4289 146.586 9.03551 114.897C25.5165 90.5672 58.6007 87.4795 76.8515 87.8034C84.1347 87.932 91.55 88.4628 98.7259 88.9772C115.948 90.2103 133.756 91.488 150.699 87.2181C174.908 81.1057 194.999 64.3858 214.421 48.2178C225.465 38.9791 236.897 29.5067 249.081 21.8898C285.392 -0.807651 333.222 -5.46899 377.039 9.42297C413.841 21.9309 443.399 46.309 460.277 78.07C467.633 91.9382 473.086 107.312 478.358 122.193C488.36 150.416 497.803 177.076 519.261 195.266C530.654 204.928 544.64 211.127 558.156 217.125C564.769 220.063 571.611 223.095 578.108 226.513C592.667 234.165 617.338 251.019 619.069 277.925C621.188 310.923 585.171 336.383 550.194 339.461C535.855 340.718 521.255 339.678 507.138 338.632C488.759 337.314 469.746 335.952 451.431 339.747C417.58 346.789 389.706 370.34 362.741 393.12C355.655 399.108 348.334 405.276 341.021 411.073C321.97 426.173 272.985 459.512 228.87 444.519ZM376.231 11.6821C333.059 -2.99075 285.947 1.58166 250.218 23.9165C238.172 31.4507 226.807 40.9133 215.819 50.0573C196.198 66.393 175.912 83.2903 151.173 89.5227C133.885 93.8783 115.896 92.5961 98.4889 91.349C91.3439 90.8369 83.9594 90.3085 76.7519 90.1894C58.9637 89.8765 26.7663 92.8434 10.908 116.248C-9.73303 146.747 11.846 190.232 43.6243 213.01C54.3547 220.717 66.2464 227.333 77.7424 233.741C99.1351 245.68 121.26 258.023 136.728 277.653C152.822 298.088 160.677 324.932 168.268 350.898C178.846 387.054 188.827 421.222 219.309 437.769C222.615 439.567 226.067 441.079 229.628 442.291C272.686 456.926 320.867 424.093 339.586 409.294C346.859 403.548 354.177 397.363 361.251 391.387C388.437 368.422 416.547 344.667 450.973 337.513C469.574 333.644 488.741 335.018 507.281 336.35C521.318 337.353 535.831 338.396 549.991 337.151C583.859 334.175 618.753 309.762 616.719 278.166C615.004 251.444 588.354 234.648 576.982 228.664C570.551 225.284 563.745 222.265 557.164 219.346C543.497 213.28 529.37 207.009 517.723 197.139C495.787 178.543 485.798 150.349 476.139 123.071C470.887 108.294 465.473 92.9664 458.196 79.2628C441.604 47.9885 412.485 24.0118 376.229 11.6894L376.231 11.6821Z" fill="#6A1AB7"/>
</svg>
